<mxfile host="app.diagrams.net" agent="Mozilla/5.0 (Macintosh; Intel Mac OS X 10_15_7) AppleWebKit/537.36 (KHTML, like Gecko) Chrome/129.0.0.0 Safari/537.36" version="24.7.7">
  <diagram name="Page-1" id="wE83LsZzIeXdS4NZE4BO">
    <mxGraphModel dx="1590" dy="968" grid="1" gridSize="10" guides="1" tooltips="1" connect="1" arrows="1" fold="1" page="1" pageScale="1" pageWidth="827" pageHeight="1169" math="0" shadow="0">
      <root>
        <mxCell id="0" />
        <mxCell id="1" parent="0" />
        <mxCell id="3YFhJeniZxe8iRHY3lFi-534" value="" style="shape=table;startSize=0;container=1;collapsible=0;childLayout=tableLayout;fontSize=16;shadow=0;" vertex="1" parent="1">
          <mxGeometry x="578" y="199" width="320" height="402" as="geometry" />
        </mxCell>
        <mxCell id="3YFhJeniZxe8iRHY3lFi-535" value="" style="shape=tableRow;horizontal=0;startSize=0;swimlaneHead=0;swimlaneBody=0;strokeColor=inherit;top=0;left=0;bottom=0;right=0;collapsible=0;dropTarget=0;fillColor=none;points=[[0,0.5],[1,0.5]];portConstraint=eastwest;fontSize=16;" vertex="1" parent="3YFhJeniZxe8iRHY3lFi-534">
          <mxGeometry width="320" height="67" as="geometry" />
        </mxCell>
        <mxCell id="3YFhJeniZxe8iRHY3lFi-536" value="..." style="shape=partialRectangle;html=1;whiteSpace=wrap;connectable=0;strokeColor=inherit;overflow=hidden;fillColor=none;top=0;left=0;bottom=0;right=0;pointerEvents=1;fontSize=16;" vertex="1" parent="3YFhJeniZxe8iRHY3lFi-535">
          <mxGeometry width="107" height="67" as="geometry">
            <mxRectangle width="107" height="67" as="alternateBounds" />
          </mxGeometry>
        </mxCell>
        <mxCell id="3YFhJeniZxe8iRHY3lFi-537" value="..." style="shape=partialRectangle;html=1;whiteSpace=wrap;connectable=0;strokeColor=inherit;overflow=hidden;fillColor=none;top=0;left=0;bottom=0;right=0;pointerEvents=1;fontSize=16;" vertex="1" parent="3YFhJeniZxe8iRHY3lFi-535">
          <mxGeometry x="107" width="106" height="67" as="geometry">
            <mxRectangle width="106" height="67" as="alternateBounds" />
          </mxGeometry>
        </mxCell>
        <mxCell id="3YFhJeniZxe8iRHY3lFi-538" value="...." style="shape=partialRectangle;html=1;whiteSpace=wrap;connectable=0;strokeColor=inherit;overflow=hidden;fillColor=none;top=0;left=0;bottom=0;right=0;pointerEvents=1;fontSize=16;" vertex="1" parent="3YFhJeniZxe8iRHY3lFi-535">
          <mxGeometry x="213" width="107" height="67" as="geometry">
            <mxRectangle width="107" height="67" as="alternateBounds" />
          </mxGeometry>
        </mxCell>
        <mxCell id="3YFhJeniZxe8iRHY3lFi-539" value="" style="shape=tableRow;horizontal=0;startSize=0;swimlaneHead=0;swimlaneBody=0;strokeColor=inherit;top=0;left=0;bottom=0;right=0;collapsible=0;dropTarget=0;fillColor=none;points=[[0,0.5],[1,0.5]];portConstraint=eastwest;fontSize=16;" vertex="1" parent="3YFhJeniZxe8iRHY3lFi-534">
          <mxGeometry y="67" width="320" height="67" as="geometry" />
        </mxCell>
        <mxCell id="3YFhJeniZxe8iRHY3lFi-540" value="..." style="shape=partialRectangle;html=1;whiteSpace=wrap;connectable=0;strokeColor=inherit;overflow=hidden;fillColor=none;top=0;left=0;bottom=0;right=0;pointerEvents=1;fontSize=16;" vertex="1" parent="3YFhJeniZxe8iRHY3lFi-539">
          <mxGeometry width="107" height="67" as="geometry">
            <mxRectangle width="107" height="67" as="alternateBounds" />
          </mxGeometry>
        </mxCell>
        <mxCell id="3YFhJeniZxe8iRHY3lFi-541" value="..." style="shape=partialRectangle;html=1;whiteSpace=wrap;connectable=0;strokeColor=inherit;overflow=hidden;fillColor=none;top=0;left=0;bottom=0;right=0;pointerEvents=1;fontSize=16;" vertex="1" parent="3YFhJeniZxe8iRHY3lFi-539">
          <mxGeometry x="107" width="106" height="67" as="geometry">
            <mxRectangle width="106" height="67" as="alternateBounds" />
          </mxGeometry>
        </mxCell>
        <mxCell id="3YFhJeniZxe8iRHY3lFi-542" value="...." style="shape=partialRectangle;html=1;whiteSpace=wrap;connectable=0;strokeColor=inherit;overflow=hidden;fillColor=none;top=0;left=0;bottom=0;right=0;pointerEvents=1;fontSize=16;" vertex="1" parent="3YFhJeniZxe8iRHY3lFi-539">
          <mxGeometry x="213" width="107" height="67" as="geometry">
            <mxRectangle width="107" height="67" as="alternateBounds" />
          </mxGeometry>
        </mxCell>
        <mxCell id="3YFhJeniZxe8iRHY3lFi-543" value="" style="shape=tableRow;horizontal=0;startSize=0;swimlaneHead=0;swimlaneBody=0;strokeColor=inherit;top=0;left=0;bottom=0;right=0;collapsible=0;dropTarget=0;fillColor=none;points=[[0,0.5],[1,0.5]];portConstraint=eastwest;fontSize=16;" vertex="1" parent="3YFhJeniZxe8iRHY3lFi-534">
          <mxGeometry y="134" width="320" height="67" as="geometry" />
        </mxCell>
        <mxCell id="3YFhJeniZxe8iRHY3lFi-544" value="..." style="shape=partialRectangle;html=1;whiteSpace=wrap;connectable=0;strokeColor=inherit;overflow=hidden;fillColor=none;top=0;left=0;bottom=0;right=0;pointerEvents=1;fontSize=16;" vertex="1" parent="3YFhJeniZxe8iRHY3lFi-543">
          <mxGeometry width="107" height="67" as="geometry">
            <mxRectangle width="107" height="67" as="alternateBounds" />
          </mxGeometry>
        </mxCell>
        <mxCell id="3YFhJeniZxe8iRHY3lFi-545" value="..." style="shape=partialRectangle;html=1;whiteSpace=wrap;connectable=0;strokeColor=inherit;overflow=hidden;fillColor=none;top=0;left=0;bottom=0;right=0;pointerEvents=1;fontSize=16;" vertex="1" parent="3YFhJeniZxe8iRHY3lFi-543">
          <mxGeometry x="107" width="106" height="67" as="geometry">
            <mxRectangle width="106" height="67" as="alternateBounds" />
          </mxGeometry>
        </mxCell>
        <mxCell id="3YFhJeniZxe8iRHY3lFi-546" value="..." style="shape=partialRectangle;html=1;whiteSpace=wrap;connectable=0;strokeColor=inherit;overflow=hidden;fillColor=none;top=0;left=0;bottom=0;right=0;pointerEvents=1;fontSize=16;" vertex="1" parent="3YFhJeniZxe8iRHY3lFi-543">
          <mxGeometry x="213" width="107" height="67" as="geometry">
            <mxRectangle width="107" height="67" as="alternateBounds" />
          </mxGeometry>
        </mxCell>
        <mxCell id="3YFhJeniZxe8iRHY3lFi-547" value="" style="shape=tableRow;horizontal=0;startSize=0;swimlaneHead=0;swimlaneBody=0;strokeColor=inherit;top=0;left=0;bottom=0;right=0;collapsible=0;dropTarget=0;fillColor=none;points=[[0,0.5],[1,0.5]];portConstraint=eastwest;fontSize=16;" vertex="1" parent="3YFhJeniZxe8iRHY3lFi-534">
          <mxGeometry y="201" width="320" height="67" as="geometry" />
        </mxCell>
        <mxCell id="3YFhJeniZxe8iRHY3lFi-548" value="&lt;font style=&quot;font-size: 12px;&quot;&gt;...&lt;/font&gt;" style="shape=partialRectangle;html=1;whiteSpace=wrap;connectable=0;strokeColor=inherit;overflow=hidden;fillColor=none;top=0;left=0;bottom=0;right=0;pointerEvents=1;fontSize=16;" vertex="1" parent="3YFhJeniZxe8iRHY3lFi-547">
          <mxGeometry width="107" height="67" as="geometry">
            <mxRectangle width="107" height="67" as="alternateBounds" />
          </mxGeometry>
        </mxCell>
        <mxCell id="3YFhJeniZxe8iRHY3lFi-549" value="..." style="shape=partialRectangle;html=1;whiteSpace=wrap;connectable=0;strokeColor=inherit;overflow=hidden;fillColor=none;top=0;left=0;bottom=0;right=0;pointerEvents=1;fontSize=16;" vertex="1" parent="3YFhJeniZxe8iRHY3lFi-547">
          <mxGeometry x="107" width="106" height="67" as="geometry">
            <mxRectangle width="106" height="67" as="alternateBounds" />
          </mxGeometry>
        </mxCell>
        <mxCell id="3YFhJeniZxe8iRHY3lFi-550" value="..." style="shape=partialRectangle;html=1;whiteSpace=wrap;connectable=0;strokeColor=inherit;overflow=hidden;fillColor=none;top=0;left=0;bottom=0;right=0;pointerEvents=1;fontSize=16;" vertex="1" parent="3YFhJeniZxe8iRHY3lFi-547">
          <mxGeometry x="213" width="107" height="67" as="geometry">
            <mxRectangle width="107" height="67" as="alternateBounds" />
          </mxGeometry>
        </mxCell>
        <mxCell id="3YFhJeniZxe8iRHY3lFi-551" value="" style="shape=tableRow;horizontal=0;startSize=0;swimlaneHead=0;swimlaneBody=0;strokeColor=inherit;top=0;left=0;bottom=0;right=0;collapsible=0;dropTarget=0;fillColor=none;points=[[0,0.5],[1,0.5]];portConstraint=eastwest;fontSize=16;" vertex="1" parent="3YFhJeniZxe8iRHY3lFi-534">
          <mxGeometry y="268" width="320" height="67" as="geometry" />
        </mxCell>
        <mxCell id="3YFhJeniZxe8iRHY3lFi-552" value="..." style="shape=partialRectangle;html=1;whiteSpace=wrap;connectable=0;strokeColor=inherit;overflow=hidden;fillColor=none;top=0;left=0;bottom=0;right=0;pointerEvents=1;fontSize=16;" vertex="1" parent="3YFhJeniZxe8iRHY3lFi-551">
          <mxGeometry width="107" height="67" as="geometry">
            <mxRectangle width="107" height="67" as="alternateBounds" />
          </mxGeometry>
        </mxCell>
        <mxCell id="3YFhJeniZxe8iRHY3lFi-553" value="..." style="shape=partialRectangle;html=1;whiteSpace=wrap;connectable=0;strokeColor=inherit;overflow=hidden;fillColor=none;top=0;left=0;bottom=0;right=0;pointerEvents=1;fontSize=16;" vertex="1" parent="3YFhJeniZxe8iRHY3lFi-551">
          <mxGeometry x="107" width="106" height="67" as="geometry">
            <mxRectangle width="106" height="67" as="alternateBounds" />
          </mxGeometry>
        </mxCell>
        <mxCell id="3YFhJeniZxe8iRHY3lFi-554" value="..." style="shape=partialRectangle;html=1;whiteSpace=wrap;connectable=0;strokeColor=inherit;overflow=hidden;fillColor=none;top=0;left=0;bottom=0;right=0;pointerEvents=1;fontSize=16;" vertex="1" parent="3YFhJeniZxe8iRHY3lFi-551">
          <mxGeometry x="213" width="107" height="67" as="geometry">
            <mxRectangle width="107" height="67" as="alternateBounds" />
          </mxGeometry>
        </mxCell>
        <mxCell id="3YFhJeniZxe8iRHY3lFi-555" value="" style="shape=tableRow;horizontal=0;startSize=0;swimlaneHead=0;swimlaneBody=0;strokeColor=inherit;top=0;left=0;bottom=0;right=0;collapsible=0;dropTarget=0;fillColor=none;points=[[0,0.5],[1,0.5]];portConstraint=eastwest;fontSize=16;" vertex="1" parent="3YFhJeniZxe8iRHY3lFi-534">
          <mxGeometry y="335" width="320" height="67" as="geometry" />
        </mxCell>
        <mxCell id="3YFhJeniZxe8iRHY3lFi-556" value="&lt;font style=&quot;font-size: 12px;&quot;&gt;...&lt;/font&gt;" style="shape=partialRectangle;html=1;whiteSpace=wrap;connectable=0;strokeColor=inherit;overflow=hidden;fillColor=none;top=0;left=0;bottom=0;right=0;pointerEvents=1;fontSize=16;" vertex="1" parent="3YFhJeniZxe8iRHY3lFi-555">
          <mxGeometry width="107" height="67" as="geometry">
            <mxRectangle width="107" height="67" as="alternateBounds" />
          </mxGeometry>
        </mxCell>
        <mxCell id="3YFhJeniZxe8iRHY3lFi-557" value="..." style="shape=partialRectangle;html=1;whiteSpace=wrap;connectable=0;strokeColor=inherit;overflow=hidden;fillColor=none;top=0;left=0;bottom=0;right=0;pointerEvents=1;fontSize=16;" vertex="1" parent="3YFhJeniZxe8iRHY3lFi-555">
          <mxGeometry x="107" width="106" height="67" as="geometry">
            <mxRectangle width="106" height="67" as="alternateBounds" />
          </mxGeometry>
        </mxCell>
        <mxCell id="3YFhJeniZxe8iRHY3lFi-558" value="..." style="shape=partialRectangle;html=1;whiteSpace=wrap;connectable=0;strokeColor=inherit;overflow=hidden;fillColor=none;top=0;left=0;bottom=0;right=0;pointerEvents=1;fontSize=16;" vertex="1" parent="3YFhJeniZxe8iRHY3lFi-555">
          <mxGeometry x="213" width="107" height="67" as="geometry">
            <mxRectangle width="107" height="67" as="alternateBounds" />
          </mxGeometry>
        </mxCell>
        <mxCell id="3YFhJeniZxe8iRHY3lFi-444" value="" style="shape=table;startSize=0;container=1;collapsible=0;childLayout=tableLayout;fontSize=16;" vertex="1" parent="1">
          <mxGeometry x="256" y="199" width="320" height="402" as="geometry" />
        </mxCell>
        <mxCell id="3YFhJeniZxe8iRHY3lFi-445" value="" style="shape=tableRow;horizontal=0;startSize=0;swimlaneHead=0;swimlaneBody=0;strokeColor=inherit;top=0;left=0;bottom=0;right=0;collapsible=0;dropTarget=0;fillColor=none;points=[[0,0.5],[1,0.5]];portConstraint=eastwest;fontSize=16;" vertex="1" parent="3YFhJeniZxe8iRHY3lFi-444">
          <mxGeometry width="320" height="67" as="geometry" />
        </mxCell>
        <mxCell id="3YFhJeniZxe8iRHY3lFi-446" value="Pixel(0,0)" style="shape=partialRectangle;html=1;whiteSpace=wrap;connectable=0;strokeColor=inherit;overflow=hidden;fillColor=none;top=0;left=0;bottom=0;right=0;pointerEvents=1;fontSize=16;" vertex="1" parent="3YFhJeniZxe8iRHY3lFi-445">
          <mxGeometry width="107" height="67" as="geometry">
            <mxRectangle width="107" height="67" as="alternateBounds" />
          </mxGeometry>
        </mxCell>
        <mxCell id="3YFhJeniZxe8iRHY3lFi-447" value="Pixel(0,1)" style="shape=partialRectangle;html=1;whiteSpace=wrap;connectable=0;strokeColor=inherit;overflow=hidden;fillColor=none;top=0;left=0;bottom=0;right=0;pointerEvents=1;fontSize=16;" vertex="1" parent="3YFhJeniZxe8iRHY3lFi-445">
          <mxGeometry x="107" width="106" height="67" as="geometry">
            <mxRectangle width="106" height="67" as="alternateBounds" />
          </mxGeometry>
        </mxCell>
        <mxCell id="3YFhJeniZxe8iRHY3lFi-448" value="...." style="shape=partialRectangle;html=1;whiteSpace=wrap;connectable=0;strokeColor=inherit;overflow=hidden;fillColor=none;top=0;left=0;bottom=0;right=0;pointerEvents=1;fontSize=16;" vertex="1" parent="3YFhJeniZxe8iRHY3lFi-445">
          <mxGeometry x="213" width="107" height="67" as="geometry">
            <mxRectangle width="107" height="67" as="alternateBounds" />
          </mxGeometry>
        </mxCell>
        <mxCell id="3YFhJeniZxe8iRHY3lFi-146" value="" style="shape=tableRow;horizontal=0;startSize=0;swimlaneHead=0;swimlaneBody=0;strokeColor=inherit;top=0;left=0;bottom=0;right=0;collapsible=0;dropTarget=0;fillColor=none;points=[[0,0.5],[1,0.5]];portConstraint=eastwest;fontSize=16;" vertex="1" parent="3YFhJeniZxe8iRHY3lFi-444">
          <mxGeometry y="67" width="320" height="67" as="geometry" />
        </mxCell>
        <mxCell id="3YFhJeniZxe8iRHY3lFi-147" value="Pixel(1,0)" style="shape=partialRectangle;html=1;whiteSpace=wrap;connectable=0;strokeColor=inherit;overflow=hidden;fillColor=none;top=0;left=0;bottom=0;right=0;pointerEvents=1;fontSize=16;" vertex="1" parent="3YFhJeniZxe8iRHY3lFi-146">
          <mxGeometry width="107" height="67" as="geometry">
            <mxRectangle width="107" height="67" as="alternateBounds" />
          </mxGeometry>
        </mxCell>
        <mxCell id="3YFhJeniZxe8iRHY3lFi-148" value="Pixel(1,1)" style="shape=partialRectangle;html=1;whiteSpace=wrap;connectable=0;strokeColor=inherit;overflow=hidden;fillColor=none;top=0;left=0;bottom=0;right=0;pointerEvents=1;fontSize=16;" vertex="1" parent="3YFhJeniZxe8iRHY3lFi-146">
          <mxGeometry x="107" width="106" height="67" as="geometry">
            <mxRectangle width="106" height="67" as="alternateBounds" />
          </mxGeometry>
        </mxCell>
        <mxCell id="3YFhJeniZxe8iRHY3lFi-149" value="...." style="shape=partialRectangle;html=1;whiteSpace=wrap;connectable=0;strokeColor=inherit;overflow=hidden;fillColor=none;top=0;left=0;bottom=0;right=0;pointerEvents=1;fontSize=16;" vertex="1" parent="3YFhJeniZxe8iRHY3lFi-146">
          <mxGeometry x="213" width="107" height="67" as="geometry">
            <mxRectangle width="107" height="67" as="alternateBounds" />
          </mxGeometry>
        </mxCell>
        <mxCell id="3YFhJeniZxe8iRHY3lFi-150" value="" style="shape=tableRow;horizontal=0;startSize=0;swimlaneHead=0;swimlaneBody=0;strokeColor=inherit;top=0;left=0;bottom=0;right=0;collapsible=0;dropTarget=0;fillColor=none;points=[[0,0.5],[1,0.5]];portConstraint=eastwest;fontSize=16;" vertex="1" parent="3YFhJeniZxe8iRHY3lFi-444">
          <mxGeometry y="134" width="320" height="67" as="geometry" />
        </mxCell>
        <mxCell id="3YFhJeniZxe8iRHY3lFi-151" value="..." style="shape=partialRectangle;html=1;whiteSpace=wrap;connectable=0;strokeColor=inherit;overflow=hidden;fillColor=none;top=0;left=0;bottom=0;right=0;pointerEvents=1;fontSize=16;" vertex="1" parent="3YFhJeniZxe8iRHY3lFi-150">
          <mxGeometry width="107" height="67" as="geometry">
            <mxRectangle width="107" height="67" as="alternateBounds" />
          </mxGeometry>
        </mxCell>
        <mxCell id="3YFhJeniZxe8iRHY3lFi-152" value="..." style="shape=partialRectangle;html=1;whiteSpace=wrap;connectable=0;strokeColor=inherit;overflow=hidden;fillColor=none;top=0;left=0;bottom=0;right=0;pointerEvents=1;fontSize=16;" vertex="1" parent="3YFhJeniZxe8iRHY3lFi-150">
          <mxGeometry x="107" width="106" height="67" as="geometry">
            <mxRectangle width="106" height="67" as="alternateBounds" />
          </mxGeometry>
        </mxCell>
        <mxCell id="3YFhJeniZxe8iRHY3lFi-153" value="..." style="shape=partialRectangle;html=1;whiteSpace=wrap;connectable=0;strokeColor=inherit;overflow=hidden;fillColor=none;top=0;left=0;bottom=0;right=0;pointerEvents=1;fontSize=16;" vertex="1" parent="3YFhJeniZxe8iRHY3lFi-150">
          <mxGeometry x="213" width="107" height="67" as="geometry">
            <mxRectangle width="107" height="67" as="alternateBounds" />
          </mxGeometry>
        </mxCell>
        <mxCell id="3YFhJeniZxe8iRHY3lFi-154" value="" style="shape=tableRow;horizontal=0;startSize=0;swimlaneHead=0;swimlaneBody=0;strokeColor=inherit;top=0;left=0;bottom=0;right=0;collapsible=0;dropTarget=0;fillColor=none;points=[[0,0.5],[1,0.5]];portConstraint=eastwest;fontSize=16;" vertex="1" parent="3YFhJeniZxe8iRHY3lFi-444">
          <mxGeometry y="201" width="320" height="67" as="geometry" />
        </mxCell>
        <mxCell id="3YFhJeniZxe8iRHY3lFi-155" value="&lt;font style=&quot;font-size: 12px;&quot;&gt;...&lt;/font&gt;" style="shape=partialRectangle;html=1;whiteSpace=wrap;connectable=0;strokeColor=inherit;overflow=hidden;fillColor=none;top=0;left=0;bottom=0;right=0;pointerEvents=1;fontSize=16;" vertex="1" parent="3YFhJeniZxe8iRHY3lFi-154">
          <mxGeometry width="107" height="67" as="geometry">
            <mxRectangle width="107" height="67" as="alternateBounds" />
          </mxGeometry>
        </mxCell>
        <mxCell id="3YFhJeniZxe8iRHY3lFi-156" value="..." style="shape=partialRectangle;html=1;whiteSpace=wrap;connectable=0;strokeColor=inherit;overflow=hidden;fillColor=none;top=0;left=0;bottom=0;right=0;pointerEvents=1;fontSize=16;" vertex="1" parent="3YFhJeniZxe8iRHY3lFi-154">
          <mxGeometry x="107" width="106" height="67" as="geometry">
            <mxRectangle width="106" height="67" as="alternateBounds" />
          </mxGeometry>
        </mxCell>
        <mxCell id="3YFhJeniZxe8iRHY3lFi-157" value="..." style="shape=partialRectangle;html=1;whiteSpace=wrap;connectable=0;strokeColor=inherit;overflow=hidden;fillColor=none;top=0;left=0;bottom=0;right=0;pointerEvents=1;fontSize=16;" vertex="1" parent="3YFhJeniZxe8iRHY3lFi-154">
          <mxGeometry x="213" width="107" height="67" as="geometry">
            <mxRectangle width="107" height="67" as="alternateBounds" />
          </mxGeometry>
        </mxCell>
        <mxCell id="3YFhJeniZxe8iRHY3lFi-449" value="" style="shape=tableRow;horizontal=0;startSize=0;swimlaneHead=0;swimlaneBody=0;strokeColor=inherit;top=0;left=0;bottom=0;right=0;collapsible=0;dropTarget=0;fillColor=none;points=[[0,0.5],[1,0.5]];portConstraint=eastwest;fontSize=16;" vertex="1" parent="3YFhJeniZxe8iRHY3lFi-444">
          <mxGeometry y="268" width="320" height="67" as="geometry" />
        </mxCell>
        <mxCell id="3YFhJeniZxe8iRHY3lFi-450" value="..." style="shape=partialRectangle;html=1;whiteSpace=wrap;connectable=0;strokeColor=inherit;overflow=hidden;fillColor=none;top=0;left=0;bottom=0;right=0;pointerEvents=1;fontSize=16;" vertex="1" parent="3YFhJeniZxe8iRHY3lFi-449">
          <mxGeometry width="107" height="67" as="geometry">
            <mxRectangle width="107" height="67" as="alternateBounds" />
          </mxGeometry>
        </mxCell>
        <mxCell id="3YFhJeniZxe8iRHY3lFi-451" value="..." style="shape=partialRectangle;html=1;whiteSpace=wrap;connectable=0;strokeColor=inherit;overflow=hidden;fillColor=none;top=0;left=0;bottom=0;right=0;pointerEvents=1;fontSize=16;" vertex="1" parent="3YFhJeniZxe8iRHY3lFi-449">
          <mxGeometry x="107" width="106" height="67" as="geometry">
            <mxRectangle width="106" height="67" as="alternateBounds" />
          </mxGeometry>
        </mxCell>
        <mxCell id="3YFhJeniZxe8iRHY3lFi-452" value="..." style="shape=partialRectangle;html=1;whiteSpace=wrap;connectable=0;strokeColor=inherit;overflow=hidden;fillColor=none;top=0;left=0;bottom=0;right=0;pointerEvents=1;fontSize=16;" vertex="1" parent="3YFhJeniZxe8iRHY3lFi-449">
          <mxGeometry x="213" width="107" height="67" as="geometry">
            <mxRectangle width="107" height="67" as="alternateBounds" />
          </mxGeometry>
        </mxCell>
        <mxCell id="3YFhJeniZxe8iRHY3lFi-453" value="" style="shape=tableRow;horizontal=0;startSize=0;swimlaneHead=0;swimlaneBody=0;strokeColor=inherit;top=0;left=0;bottom=0;right=0;collapsible=0;dropTarget=0;fillColor=none;points=[[0,0.5],[1,0.5]];portConstraint=eastwest;fontSize=16;" vertex="1" parent="3YFhJeniZxe8iRHY3lFi-444">
          <mxGeometry y="335" width="320" height="67" as="geometry" />
        </mxCell>
        <mxCell id="3YFhJeniZxe8iRHY3lFi-454" value="Pixel(23,0)" style="shape=partialRectangle;html=1;whiteSpace=wrap;connectable=0;strokeColor=inherit;overflow=hidden;fillColor=none;top=0;left=0;bottom=0;right=0;pointerEvents=1;fontSize=16;" vertex="1" parent="3YFhJeniZxe8iRHY3lFi-453">
          <mxGeometry width="107" height="67" as="geometry">
            <mxRectangle width="107" height="67" as="alternateBounds" />
          </mxGeometry>
        </mxCell>
        <mxCell id="3YFhJeniZxe8iRHY3lFi-455" value="..." style="shape=partialRectangle;html=1;whiteSpace=wrap;connectable=0;strokeColor=inherit;overflow=hidden;fillColor=none;top=0;left=0;bottom=0;right=0;pointerEvents=1;fontSize=16;" vertex="1" parent="3YFhJeniZxe8iRHY3lFi-453">
          <mxGeometry x="107" width="106" height="67" as="geometry">
            <mxRectangle width="106" height="67" as="alternateBounds" />
          </mxGeometry>
        </mxCell>
        <mxCell id="3YFhJeniZxe8iRHY3lFi-456" value="..." style="shape=partialRectangle;html=1;whiteSpace=wrap;connectable=0;strokeColor=inherit;overflow=hidden;fillColor=none;top=0;left=0;bottom=0;right=0;pointerEvents=1;fontSize=16;" vertex="1" parent="3YFhJeniZxe8iRHY3lFi-453">
          <mxGeometry x="213" width="107" height="67" as="geometry">
            <mxRectangle width="107" height="67" as="alternateBounds" />
          </mxGeometry>
        </mxCell>
        <mxCell id="3YFhJeniZxe8iRHY3lFi-584" value="" style="shape=table;startSize=0;container=1;collapsible=0;childLayout=tableLayout;fontSize=16;" vertex="1" parent="1">
          <mxGeometry x="898" y="199" width="320" height="402" as="geometry" />
        </mxCell>
        <mxCell id="3YFhJeniZxe8iRHY3lFi-585" value="" style="shape=tableRow;horizontal=0;startSize=0;swimlaneHead=0;swimlaneBody=0;strokeColor=inherit;top=0;left=0;bottom=0;right=0;collapsible=0;dropTarget=0;fillColor=none;points=[[0,0.5],[1,0.5]];portConstraint=eastwest;fontSize=16;" vertex="1" parent="3YFhJeniZxe8iRHY3lFi-584">
          <mxGeometry width="320" height="67" as="geometry" />
        </mxCell>
        <mxCell id="3YFhJeniZxe8iRHY3lFi-586" value="..." style="shape=partialRectangle;html=1;whiteSpace=wrap;connectable=0;strokeColor=inherit;overflow=hidden;fillColor=none;top=0;left=0;bottom=0;right=0;pointerEvents=1;fontSize=16;" vertex="1" parent="3YFhJeniZxe8iRHY3lFi-585">
          <mxGeometry width="107" height="67" as="geometry">
            <mxRectangle width="107" height="67" as="alternateBounds" />
          </mxGeometry>
        </mxCell>
        <mxCell id="3YFhJeniZxe8iRHY3lFi-587" value="..." style="shape=partialRectangle;html=1;whiteSpace=wrap;connectable=0;strokeColor=inherit;overflow=hidden;fillColor=none;top=0;left=0;bottom=0;right=0;pointerEvents=1;fontSize=16;" vertex="1" parent="3YFhJeniZxe8iRHY3lFi-585">
          <mxGeometry x="107" width="106" height="67" as="geometry">
            <mxRectangle width="106" height="67" as="alternateBounds" />
          </mxGeometry>
        </mxCell>
        <mxCell id="3YFhJeniZxe8iRHY3lFi-588" value="Pixel(0,1289)" style="shape=partialRectangle;html=1;whiteSpace=wrap;connectable=0;strokeColor=inherit;overflow=hidden;fillColor=none;top=0;left=0;bottom=0;right=0;pointerEvents=1;fontSize=16;" vertex="1" parent="3YFhJeniZxe8iRHY3lFi-585">
          <mxGeometry x="213" width="107" height="67" as="geometry">
            <mxRectangle width="107" height="67" as="alternateBounds" />
          </mxGeometry>
        </mxCell>
        <mxCell id="3YFhJeniZxe8iRHY3lFi-589" value="" style="shape=tableRow;horizontal=0;startSize=0;swimlaneHead=0;swimlaneBody=0;strokeColor=inherit;top=0;left=0;bottom=0;right=0;collapsible=0;dropTarget=0;fillColor=none;points=[[0,0.5],[1,0.5]];portConstraint=eastwest;fontSize=16;" vertex="1" parent="3YFhJeniZxe8iRHY3lFi-584">
          <mxGeometry y="67" width="320" height="67" as="geometry" />
        </mxCell>
        <mxCell id="3YFhJeniZxe8iRHY3lFi-590" value="..." style="shape=partialRectangle;html=1;whiteSpace=wrap;connectable=0;strokeColor=inherit;overflow=hidden;fillColor=none;top=0;left=0;bottom=0;right=0;pointerEvents=1;fontSize=16;" vertex="1" parent="3YFhJeniZxe8iRHY3lFi-589">
          <mxGeometry width="107" height="67" as="geometry">
            <mxRectangle width="107" height="67" as="alternateBounds" />
          </mxGeometry>
        </mxCell>
        <mxCell id="3YFhJeniZxe8iRHY3lFi-591" value="..." style="shape=partialRectangle;html=1;whiteSpace=wrap;connectable=0;strokeColor=inherit;overflow=hidden;fillColor=none;top=0;left=0;bottom=0;right=0;pointerEvents=1;fontSize=16;" vertex="1" parent="3YFhJeniZxe8iRHY3lFi-589">
          <mxGeometry x="107" width="106" height="67" as="geometry">
            <mxRectangle width="106" height="67" as="alternateBounds" />
          </mxGeometry>
        </mxCell>
        <mxCell id="3YFhJeniZxe8iRHY3lFi-592" value="Pixel(1,1289)" style="shape=partialRectangle;html=1;whiteSpace=wrap;connectable=0;strokeColor=inherit;overflow=hidden;fillColor=none;top=0;left=0;bottom=0;right=0;pointerEvents=1;fontSize=16;" vertex="1" parent="3YFhJeniZxe8iRHY3lFi-589">
          <mxGeometry x="213" width="107" height="67" as="geometry">
            <mxRectangle width="107" height="67" as="alternateBounds" />
          </mxGeometry>
        </mxCell>
        <mxCell id="3YFhJeniZxe8iRHY3lFi-593" value="" style="shape=tableRow;horizontal=0;startSize=0;swimlaneHead=0;swimlaneBody=0;strokeColor=inherit;top=0;left=0;bottom=0;right=0;collapsible=0;dropTarget=0;fillColor=none;points=[[0,0.5],[1,0.5]];portConstraint=eastwest;fontSize=16;" vertex="1" parent="3YFhJeniZxe8iRHY3lFi-584">
          <mxGeometry y="134" width="320" height="67" as="geometry" />
        </mxCell>
        <mxCell id="3YFhJeniZxe8iRHY3lFi-594" value="..." style="shape=partialRectangle;html=1;whiteSpace=wrap;connectable=0;strokeColor=inherit;overflow=hidden;fillColor=none;top=0;left=0;bottom=0;right=0;pointerEvents=1;fontSize=16;" vertex="1" parent="3YFhJeniZxe8iRHY3lFi-593">
          <mxGeometry width="107" height="67" as="geometry">
            <mxRectangle width="107" height="67" as="alternateBounds" />
          </mxGeometry>
        </mxCell>
        <mxCell id="3YFhJeniZxe8iRHY3lFi-595" value="..." style="shape=partialRectangle;html=1;whiteSpace=wrap;connectable=0;strokeColor=inherit;overflow=hidden;fillColor=none;top=0;left=0;bottom=0;right=0;pointerEvents=1;fontSize=16;" vertex="1" parent="3YFhJeniZxe8iRHY3lFi-593">
          <mxGeometry x="107" width="106" height="67" as="geometry">
            <mxRectangle width="106" height="67" as="alternateBounds" />
          </mxGeometry>
        </mxCell>
        <mxCell id="3YFhJeniZxe8iRHY3lFi-596" value="..." style="shape=partialRectangle;html=1;whiteSpace=wrap;connectable=0;strokeColor=inherit;overflow=hidden;fillColor=none;top=0;left=0;bottom=0;right=0;pointerEvents=1;fontSize=16;" vertex="1" parent="3YFhJeniZxe8iRHY3lFi-593">
          <mxGeometry x="213" width="107" height="67" as="geometry">
            <mxRectangle width="107" height="67" as="alternateBounds" />
          </mxGeometry>
        </mxCell>
        <mxCell id="3YFhJeniZxe8iRHY3lFi-597" value="" style="shape=tableRow;horizontal=0;startSize=0;swimlaneHead=0;swimlaneBody=0;strokeColor=inherit;top=0;left=0;bottom=0;right=0;collapsible=0;dropTarget=0;fillColor=none;points=[[0,0.5],[1,0.5]];portConstraint=eastwest;fontSize=16;" vertex="1" parent="3YFhJeniZxe8iRHY3lFi-584">
          <mxGeometry y="201" width="320" height="67" as="geometry" />
        </mxCell>
        <mxCell id="3YFhJeniZxe8iRHY3lFi-598" value="&lt;font style=&quot;font-size: 12px;&quot;&gt;...&lt;/font&gt;" style="shape=partialRectangle;html=1;whiteSpace=wrap;connectable=0;strokeColor=inherit;overflow=hidden;fillColor=none;top=0;left=0;bottom=0;right=0;pointerEvents=1;fontSize=16;" vertex="1" parent="3YFhJeniZxe8iRHY3lFi-597">
          <mxGeometry width="107" height="67" as="geometry">
            <mxRectangle width="107" height="67" as="alternateBounds" />
          </mxGeometry>
        </mxCell>
        <mxCell id="3YFhJeniZxe8iRHY3lFi-599" value="..." style="shape=partialRectangle;html=1;whiteSpace=wrap;connectable=0;strokeColor=inherit;overflow=hidden;fillColor=none;top=0;left=0;bottom=0;right=0;pointerEvents=1;fontSize=16;" vertex="1" parent="3YFhJeniZxe8iRHY3lFi-597">
          <mxGeometry x="107" width="106" height="67" as="geometry">
            <mxRectangle width="106" height="67" as="alternateBounds" />
          </mxGeometry>
        </mxCell>
        <mxCell id="3YFhJeniZxe8iRHY3lFi-600" value="..." style="shape=partialRectangle;html=1;whiteSpace=wrap;connectable=0;strokeColor=inherit;overflow=hidden;fillColor=none;top=0;left=0;bottom=0;right=0;pointerEvents=1;fontSize=16;" vertex="1" parent="3YFhJeniZxe8iRHY3lFi-597">
          <mxGeometry x="213" width="107" height="67" as="geometry">
            <mxRectangle width="107" height="67" as="alternateBounds" />
          </mxGeometry>
        </mxCell>
        <mxCell id="3YFhJeniZxe8iRHY3lFi-601" value="" style="shape=tableRow;horizontal=0;startSize=0;swimlaneHead=0;swimlaneBody=0;strokeColor=inherit;top=0;left=0;bottom=0;right=0;collapsible=0;dropTarget=0;fillColor=none;points=[[0,0.5],[1,0.5]];portConstraint=eastwest;fontSize=16;" vertex="1" parent="3YFhJeniZxe8iRHY3lFi-584">
          <mxGeometry y="268" width="320" height="67" as="geometry" />
        </mxCell>
        <mxCell id="3YFhJeniZxe8iRHY3lFi-602" value="..." style="shape=partialRectangle;html=1;whiteSpace=wrap;connectable=0;strokeColor=inherit;overflow=hidden;fillColor=none;top=0;left=0;bottom=0;right=0;pointerEvents=1;fontSize=16;" vertex="1" parent="3YFhJeniZxe8iRHY3lFi-601">
          <mxGeometry width="107" height="67" as="geometry">
            <mxRectangle width="107" height="67" as="alternateBounds" />
          </mxGeometry>
        </mxCell>
        <mxCell id="3YFhJeniZxe8iRHY3lFi-603" value="..." style="shape=partialRectangle;html=1;whiteSpace=wrap;connectable=0;strokeColor=inherit;overflow=hidden;fillColor=none;top=0;left=0;bottom=0;right=0;pointerEvents=1;fontSize=16;" vertex="1" parent="3YFhJeniZxe8iRHY3lFi-601">
          <mxGeometry x="107" width="106" height="67" as="geometry">
            <mxRectangle width="106" height="67" as="alternateBounds" />
          </mxGeometry>
        </mxCell>
        <mxCell id="3YFhJeniZxe8iRHY3lFi-604" value="..." style="shape=partialRectangle;html=1;whiteSpace=wrap;connectable=0;strokeColor=inherit;overflow=hidden;fillColor=none;top=0;left=0;bottom=0;right=0;pointerEvents=1;fontSize=16;" vertex="1" parent="3YFhJeniZxe8iRHY3lFi-601">
          <mxGeometry x="213" width="107" height="67" as="geometry">
            <mxRectangle width="107" height="67" as="alternateBounds" />
          </mxGeometry>
        </mxCell>
        <mxCell id="3YFhJeniZxe8iRHY3lFi-605" value="" style="shape=tableRow;horizontal=0;startSize=0;swimlaneHead=0;swimlaneBody=0;strokeColor=inherit;top=0;left=0;bottom=0;right=0;collapsible=0;dropTarget=0;fillColor=none;points=[[0,0.5],[1,0.5]];portConstraint=eastwest;fontSize=16;" vertex="1" parent="3YFhJeniZxe8iRHY3lFi-584">
          <mxGeometry y="335" width="320" height="67" as="geometry" />
        </mxCell>
        <mxCell id="3YFhJeniZxe8iRHY3lFi-606" value="&lt;font style=&quot;font-size: 12px;&quot;&gt;...&lt;/font&gt;" style="shape=partialRectangle;html=1;whiteSpace=wrap;connectable=0;strokeColor=inherit;overflow=hidden;fillColor=none;top=0;left=0;bottom=0;right=0;pointerEvents=1;fontSize=16;" vertex="1" parent="3YFhJeniZxe8iRHY3lFi-605">
          <mxGeometry width="107" height="67" as="geometry">
            <mxRectangle width="107" height="67" as="alternateBounds" />
          </mxGeometry>
        </mxCell>
        <mxCell id="3YFhJeniZxe8iRHY3lFi-607" value="..." style="shape=partialRectangle;html=1;whiteSpace=wrap;connectable=0;strokeColor=inherit;overflow=hidden;fillColor=none;top=0;left=0;bottom=0;right=0;pointerEvents=1;fontSize=16;" vertex="1" parent="3YFhJeniZxe8iRHY3lFi-605">
          <mxGeometry x="107" width="106" height="67" as="geometry">
            <mxRectangle width="106" height="67" as="alternateBounds" />
          </mxGeometry>
        </mxCell>
        <mxCell id="3YFhJeniZxe8iRHY3lFi-608" value="Pixel(23,1289)" style="shape=partialRectangle;html=1;whiteSpace=wrap;connectable=0;strokeColor=inherit;overflow=hidden;fillColor=none;top=0;left=0;bottom=0;right=0;pointerEvents=1;fontSize=16;" vertex="1" parent="3YFhJeniZxe8iRHY3lFi-605">
          <mxGeometry x="213" width="107" height="67" as="geometry">
            <mxRectangle width="107" height="67" as="alternateBounds" />
          </mxGeometry>
        </mxCell>
        <mxCell id="3YFhJeniZxe8iRHY3lFi-609" value="&lt;font style=&quot;font-size: 36px;&quot;&gt;&lt;b&gt;24x1290 Frame&lt;/b&gt;&lt;/font&gt;" style="text;html=1;align=center;verticalAlign=middle;resizable=0;points=[];autosize=1;strokeColor=none;fillColor=none;" vertex="1" parent="1">
          <mxGeometry x="565" y="120" width="280" height="60" as="geometry" />
        </mxCell>
      </root>
    </mxGraphModel>
  </diagram>
</mxfile>
